Coordinates
version=1
nRows=12
nColumns=24
inDegrees=yes

Units are S.I. units (second, meters, Newtons, ...)
Angles are in degrees.

endheader
time	pelvis_tilt	pelvis_list	pelvis_rotation	pelvis_tx	pelvis_ty	pelvis_tz	hip_flexion_r	hip_adduction_r	hip_rotation_r	knee_angle_r	ankle_angle_r	subtalar_angle_r	mtp_angle_r	hip_flexion_l	hip_adduction_l	hip_rotation_l	knee_angle_l	ankle_angle_l	subtalar_angle_l	mtp_angle_l	lumbar_extension	lumbar_bending	lumbar_rotation
      0.60000000	     -0.14664983	      6.04214203	      2.04162101	     -0.70877684	      0.98760940	      0.26881539	     24.68178053	     -4.93789357	     -0.23428952	     -6.64275945	      4.36156988	    -10.34698549	      9.59690665	    -19.55538553	      8.43395495	      8.47779406	     -9.79423306	      8.51465781	    -12.43483077	      9.67308056	     -2.30367214	     -6.90896664	     -5.27496794
      0.60416667	     -0.19735074	      5.90273097	      2.04287335	     -0.70217261	      0.98730569	      0.26932221	     24.67725310	     -4.72072708	      0.04822004	     -7.21606510	      3.91986229	    -10.72733026	      9.55748336	    -19.44305716	      8.27368355	      8.25643782	    -10.61352973	      8.29699125	    -12.24215955	      9.76349875	     -2.12459130	     -6.70414809	     -5.17525831
      0.60833333	     -0.20767803	      5.77123930	      2.07672631	     -0.69561122	      0.98709890	      0.26980957	     24.63999605	     -4.52753349	      0.22716570	     -7.83228644	      3.56341530	    -11.02740484	      9.51943567	    -19.30539649	      8.10000042	      7.95396516	    -11.56412572	      8.15594345	    -11.82338118	      9.95320954	     -2.01732424	     -6.52644897	     -5.22668691
      0.61250000	     -0.20694207	      5.62453603	      2.07141021	     -0.68900339	      0.98692012	      0.27032950	     24.61136350	     -4.30844848	      0.37873482	     -8.48868562	      3.16700030	    -11.24132140	      9.48559687	    -19.17499365	      7.92163124	      7.60850795	    -12.51392585	      7.94553141	    -11.42521141	     10.29062765	     -1.91083231	     -6.31246123	     -5.25614629
      0.61666667	     -0.24306516	      5.48655126	      2.08966990	     -0.68238865	      0.98675142	      0.27083802	     24.60810534	     -4.10828636	      0.51365192	     -9.13071778	      2.81520525	    -11.42571986	      9.46872057	    -18.95760965	      7.74790915	      7.27094502	    -13.54511659	      7.64963912	    -11.09432603	     10.60982515	     -1.75815030	     -6.12275535	     -5.27871127
      0.62083333	     -0.21461800	      5.31912170	      2.07695909	     -0.67574972	      0.98669699	      0.27138105	     24.52768853	     -3.86831583	      0.64282024	     -9.75484563	      2.40060913	    -11.62898418	      9.35281984	    -18.79304857	      7.54102221	      6.85840224	    -14.58434375	      7.24534484	    -10.81578787	     16.36540043	     -1.67500138	     -5.88124162	     -5.28146441
      0.62500000	     -0.23987777	      5.19255475	      2.07004831	     -0.66913873	      0.98659610	      0.27191994	     24.55043692	     -3.68098632	      0.69874248	    -10.48063526	      2.13813085	    -11.67092741	      9.35443119	    -18.53208287	      7.37975539	      6.46687197	    -15.69651310	      6.85108190	    -10.45751110	     16.42768769	     -1.53303029	     -5.70266407	     -5.28821119
      0.62916667	     -0.23303775	      5.04368614	      2.04726050	     -0.66252975	      0.98657222	      0.27249215	     24.52818901	     -3.46466439	      0.76429050	    -11.18560174	      1.83386797	    -11.77325465	      9.35399889	    -18.26910164	      7.18960806	      6.01510805	    -16.86623490	      6.43291631	    -10.05737691	     16.56442601	     -1.42823067	     -5.48791591	     -5.27134357
      0.63333333	     -0.22844029	      4.89841077	      2.02080770	     -0.65593471	      0.98658320	      0.27307825	     24.50225458	     -3.25400166	      0.82406032	    -11.88013656	      1.57883848	    -11.81863478	      9.35158017	    -17.96730718	      6.99921940	      5.54506375	    -18.09095032	      5.92457574	     -9.70685616	     16.73622021	     -1.31785105	     -5.28660301	     -5.24871713
      0.63750000	     -0.21269383	      4.74866214	      1.98910406	     -0.64937922	      0.98662937	      0.27367499	     24.48736146	     -3.04019006	      0.84395977	    -12.62618503	      1.34874309	    -11.88025620	      9.34251676	    -17.63739395	      6.79720741	      5.05156944	    -19.37871352	      5.43528978	     -9.28976193	     17.00770499	     -1.23480087	     -5.06665945	     -5.21305688
      0.64166667	     -0.21464158	      4.60648507	      1.95303255	     -0.64284090	      0.98670304	      0.27429998	     24.47397045	     -2.83329160	      0.88308240	    -13.33654785	      1.16992992	    -11.88429919	      9.32849383	    -17.24906370	      6.59608401	      4.53396998	    -20.71839403	      4.83192794	     -8.92977805	     17.30106395	     -1.12433486	     -4.87710513	     -5.17060701
      0.64583333	     -0.18565273	      4.44721498	      1.90955438	     -0.63633321	      0.98685371	      0.27495726	     24.41461182	     -2.60360251	      0.92941329	    -14.02008644	      0.94698296	    -12.01085165	      8.92007651	    -16.86600710	      6.36224961	      3.98831287	    -22.07794596	      4.09928108	     -8.63104981	     23.45334772	     -1.05176998	     -4.64034499	     -5.12914396
